<?xml version="1.0" standalone="no"?>
<!DOCTYPE svg PUBLIC "-//W3C//DTD SVG 20010904//EN"
 "http://www.w3.org/TR/2001/REC-SVG-20010904/DTD/svg10.dtd">
<svg version="1.0" xmlns="http://www.w3.org/2000/svg"
 width="16.000000pt" height="16.000000pt" viewBox="0 0 16.000000 16.000000"
 preserveAspectRatio="xMidYMid meet">
<metadata>
Created by potrace 1.11, written by Peter Selinger 2001-2013
</metadata>
<g transform="translate(0.000000,16.000000) scale(0.014035,-0.014035)"
fill="#000000" stroke="none">
<path d="M430 1016 c-131 -37 -233 -123 -296 -251 -39 -79 -39 -79 -39 -200
l0 -122 42 -85 c69 -139 187 -229 341 -259 111 -21 249 8 340 71 23 16 50 30
60 30 32 0 138 57 165 89 36 43 35 84 -1 120 -21 21 -26 34 -21 52 13 44 9
164 -6 224 -42 160 -169 289 -329 331 -28 8 -64 13 -81 13 -19 0 -6 -6 34 -14
123 -27 236 -120 294 -243 32 -69 33 -64 -13 -198 l-31 -91 -40 1 c-34 1 -46
-5 -71 -33 -26 -29 -30 -40 -26 -75 4 -34 4 -37 -5 -16 -16 40 -82 88 -133 96
-49 7 -85 -9 -48 -22 86 -28 90 -35 39 -65 -43 -26 -44 -44 -6 -64 17 -8 33
-20 37 -26 4 -7 -2 -6 -17 2 -13 7 -62 18 -109 25 -81 12 -141 34 -167 60 -7
7 -23 21 -36 31 -53 42 -89 103 -103 172 -1 7 -12 35 -23 62 -27 63 -27 75 10
148 62 123 177 216 299 240 34 7 37 9 15 9 -16 0 -50 -5 -75 -12z"/>
<path d="M327 802 c-42 -31 -77 -78 -77 -104 0 -28 17 -21 57 23 20 22 54 49
75 60 21 11 38 26 38 34 0 25 -53 18 -93 -13z"/>
<path d="M678 719 c-10 -5 -18 -17 -18 -24 0 -11 13 -15 53 -15 29 0 75 -7
101 -16 50 -17 62 -15 52 11 -15 39 -145 70 -188 44z"/>
<path d="M402 667 c-41 -49 -32 -132 14 -143 38 -10 64 20 64 73 0 62 -48 106
-78 70z"/>
<path d="M650 607 c-17 -8 -25 -21 -25 -37 0 -25 0 -25 85 -22 90 4 104 9 95
35 -13 33 -108 48 -155 24z"/>
</g>
</svg>
